[Scene-007] Analyzing scene content with Gemini...
Uploading /Users/shreybirmiwal/projects/GCinema/pipeline/output/CC-Girl-Scene/Scene-007/clip.mp4 ...
  Waiting for Gemini to process video ...
Upload complete: https://generativelanguage.googleapis.com/v1beta/files/7cpjuvcrb2ly
Generating description with gemini-3.1-pro-preview ...
Description written to: /Users/shreybirmiwal/projects/GCinema/pipeline/output/CC-Girl-Scene/Scene-007/description.txt
[Scene-007] Description saved.
[Scene-007] Extracting first frame as keyframe...
Frame saved to: /Users/shreybirmiwal/projects/GCinema/pipeline/output/CC-Girl-Scene/Scene-007/frame0.png
[Scene-007] Keyframe saved: frame0.png
[Scene-007] Waiting for Scene-006 colorization...
[Scene-007] Colorizing keyframe with Gemini...
[Scene-007] Using color reference from Scene-006
Input:     /Users/shreybirmiwal/projects/GCinema/pipeline/output/CC-Girl-Scene/Scene-007/frame0.png
Input2:    (none)
Reference: /Users/shreybirmiwal/projects/GCinema/pipeline/output/CC-Girl-Scene/Scene-006/frame0_colorized.jpg
Model:     gemini-3.1-flash-image-preview
Colorizing ...
Colorized image saved to: /Users/shreybirmiwal/projects/GCinema/pipeline/output/CC-Girl-Scene/Scene-007/frame0_colorized.jpg
[Scene-007] Colorized keyframe saved.
[Scene-007] Generating colorized video (5s target)...
Image:       /Users/shreybirmiwal/projects/GCinema/pipeline/output/CC-Girl-Scene/Scene-007/frame0_colorized.jpg
Description: /Users/shreybirmiwal/projects/GCinema/pipeline/output/CC-Girl-Scene/Scene-007/description.txt
Backend:     auto
Duration:    5s
Output:      /Users/shreybirmiwal/projects/GCinema/pipeline/output/CC-Girl-Scene/Scene-007/frame0_colorized_generated.mp4
Generating via Veo (veo-3.1-generate-preview) ...
Waiting for Veo to generate video.....
Video saved to: /Users/shreybirmiwal/projects/GCinema/pipeline/output/CC-Girl-Scene/Scene-007/frame0_colorized_generated.mp4
[Scene-007] Generated video saved.
[Scene-007] Time-stretching to match original clip duration...
ffmpeg version 8.0 Copyright (c) 2000-2025 the FFmpeg developers
  built with Apple clang version 17.0.0 (clang-1700.0.13.3)
  configuration: --prefix=/opt/homebrew/Cellar/ffmpeg/8.0_1 --enable-shared --enable-pthreads --enable-version3 --cc=clang --host-cflags= --host-ldflags='-Wl,-ld_classic' --enable-ffplay --enable-gnutls --enable-gpl --enable-libaom --enable-libaribb24 --enable-libbluray --enable-libdav1d --enable-libharfbuzz --enable-libjxl --enable-libmp3lame --enable-libopus --enable-librav1e --enable-librist --enable-librubberband --enable-libsnappy --enable-libsrt --enable-libssh --enable-libsvtav1 --enable-libtesseract --enable-libtheora --enable-libvidstab --enable-libvmaf --enable-libvorbis --enable-libvpx --enable-libwebp --enable-libx264 --enable-libx265 --enable-libxml2 --enable-libxvid --enable-lzma --enable-libfontconfig --enable-libfreetype --enable-frei0r --enable-libass --enable-libopencore-amrnb --enable-libopencore-amrwb --enable-libopenjpeg --enable-libspeex --enable-libsoxr --enable-libzmq --enable-libzimg --disable-libjack --disable-indev=jack --enable-videotoolbox --enable-audiotoolbox --enable-neon
  libavutil      60.  8.100 / 60.  8.100
  libavcodec     62. 11.100 / 62. 11.100
  libavformat    62.  3.100 / 62.  3.100
  libavdevice    62.  1.100 / 62.  1.100
  libavfilter    11.  4.100 / 11.  4.100
  libswscale      9.  1.100 /  9.  1.100
  libswresample   6.  1.100 /  6.  1.100
Input #0, mov,mp4,m4a,3gp,3g2,mj2, from '/Users/shreybirmiwal/projects/GCinema/pipeline/output/CC-Girl-Scene/Scene-007/frame0_colorized_generated.mp4':
  Metadata:
    major_brand     : isom
    minor_version   : 512
    compatible_brands: isomiso2avc1mp41
    encoder         : Google
  Duration: 00:00:06.00, start: 0.000000, bitrate: 2414 kb/s
  Stream #0:0[0x1](und): Video: h264 (High) (avc1 / 0x31637661), yuv420p(progressive), 1280x720, 2256 kb/s, 24 fps, 24 tbr, 12288 tbn (default)
    Metadata:
      handler_name    : VideoHandler
      vendor_id       : [0][0][0][0]
  Stream #0:1[0x2](und): Audio: aac (LC) (mp4a / 0x6134706D), 48000 Hz, stereo, fltp, 140 kb/s (default)
    Metadata:
      handler_name    : SoundHandler
      vendor_id       : [0][0][0][0]
Stream mapping:
  Stream #0:0 -> #0:0 (h264 (native) -> h264 (libx264))
  Stream #0:1 -> #0:1 (aac (native) -> aac (native))
Press [q] to stop, [?] for help
[libx264 @ 0xa93059180] using cpu capabilities: ARMv8 NEON DotProd I8MM
[libx264 @ 0xa93059180] profile High, level 3.1, 4:2:0, 8-bit
[libx264 @ 0xa93059180] 264 - core 165 r3222 b35605a - H.264/MPEG-4 AVC codec - Copyleft 2003-2025 - http://www.videolan.org/x264.html - options: cabac=1 ref=3 deblock=1:0:0 analyse=0x3:0x113 me=hex subme=7 psy=1 psy_rd=1.00:0.00 mixed_ref=1 me_range=16 chroma_me=1 trellis=1 8x8dct=1 cqm=0 deadzone=21,11 fast_pskip=1 chroma_qp_offset=-2 threads=21 lookahead_threads=3 sliced_threads=0 nr=0 decimate=1 interlaced=0 bluray_compat=0 constrained_intra=0 bframes=3 b_pyramid=2 b_adapt=1 b_bias=0 direct=1 weightb=1 open_gop=0 weightp=2 keyint=250 keyint_min=24 scenecut=40 intra_refresh=0 rc_lookahead=40 rc=crf mbtree=1 crf=23.0 qcomp=0.60 qpmin=0 qpmax=69 qpstep=4 ip_ratio=1.40 aq=1:1.00
Output #0, mp4, to '/Users/shreybirmiwal/projects/GCinema/pipeline/output/CC-Girl-Scene/Scene-007/frame0_colorized_generated_matched.mp4':
  Metadata:
    major_brand     : isom
    minor_version   : 512
    compatible_brands: isomiso2avc1mp41
    encoder         : Lavf62.3.100
  Stream #0:0(und): Video: h264 (avc1 / 0x31637661), yuv420p(tv, progressive), 1280x720, q=2-31, 24 fps, 12288 tbn (default)
    Metadata:
      encoder         : Lavc62.11.100 libx264
      handler_name    : VideoHandler
      vendor_id       : [0][0][0][0]
    Side data:
      cpb: bitrate max/min/avg: 0/0/0 buffer size: 0 vbv_delay: N/A
  Stream #0:1(und): Audio: aac (LC) (mp4a / 0x6134706D), 48000 Hz, stereo, fltp, 128 kb/s (default)
    Metadata:
      encoder         : Lavc62.11.100 aac
      handler_name    : SoundHandler
      vendor_id       : [0][0][0][0]
frame=   60 fps=0.0 q=28.0 size=     512KiB time=N/A bitrate=N/A dup=0 drop=50 speed=N/A elapsed=0:00:00.50    [out#0/mp4 @ 0xa93025b00] video:874KiB audio:62KiB subtitle:0KiB other streams:0KiB global headers:0KiB muxing overhead: 0.430803%
frame=   95 fps=0.0 q=-1.0 Lsize=     941KiB time=00:00:03.83 bitrate=2010.3kbits/s dup=0 drop=50 speed=6.08x elapsed=0:00:00.63    
[libx264 @ 0xa93059180] frame I:1     Avg QP:19.17  size: 50368
[libx264 @ 0xa93059180] frame P:28    Avg QP:22.11  size: 21166
[libx264 @ 0xa93059180] frame B:66    Avg QP:25.55  size:  3814
[libx264 @ 0xa93059180] consecutive B-frames:  2.1%  8.4% 22.1% 67.4%
[libx264 @ 0xa93059180] mb I  I16..4: 22.0% 64.9% 13.1%
[libx264 @ 0xa93059180] mb P  I16..4:  3.3% 10.4%  1.3%  P16..4: 44.7% 16.3%  8.2%  0.0%  0.0%    skip:15.8%
[libx264 @ 0xa93059180] mb B  I16..4:  0.1%  0.2%  0.0%  B16..8: 40.8%  3.6%  0.6%  direct: 1.1%  skip:53.7%  L0:38.0% L1:55.1% BI: 6.9%
[libx264 @ 0xa93059180] 8x8 transform intra:68.0% inter:81.4%
[libx264 @ 0xa93059180] coded y,uvDC,uvAC intra: 49.0% 57.4% 15.4% inter: 13.0% 14.6% 0.1%
[libx264 @ 0xa93059180] i16 v,h,dc,p: 32% 23% 14% 31%
[libx264 @ 0xa93059180] i8 v,h,dc,ddl,ddr,vr,hd,vl,hu: 19% 16% 31%  5%  5%  5%  6%  6%  7%
[libx264 @ 0xa93059180] i4 v,h,dc,ddl,ddr,vr,hd,vl,hu: 21% 15% 14%  6% 10% 11%  8%  8%  6%
[libx264 @ 0xa93059180] i8c dc,h,v,p: 53% 22% 21%  5%
[libx264 @ 0xa93059180] Weighted P-Frames: Y:0.0% UV:0.0%
[libx264 @ 0xa93059180] ref P L0: 64.5% 19.7% 12.4%  3.4%
[libx264 @ 0xa93059180] ref B L0: 93.2%  5.7%  1.2%
[libx264 @ 0xa93059180] ref B L1: 98.4%  1.6%
[libx264 @ 0xa93059180] kb/s:1808.33
[aac @ 0xa930e1180] Qavg: 762.883
Original duration:   3.917s
Colorized duration:  6.000s
PTS factor:          0.6528x  (target: 3.917s)
Running: ffmpeg -y -i /Users/shreybirmiwal/projects/GCinema/pipeline/output/CC-Girl-Scene/Scene-007/frame0_colorized_generated.mp4 -vf setpts=0.652778*PTS -af atempo=1.531915 /Users/shreybirmiwal/projects/GCinema/pipeline/output/CC-Girl-Scene/Scene-007/frame0_colorized_generated_matched.mp4
Output saved to: /Users/shreybirmiwal/projects/GCinema/pipeline/output/CC-Girl-Scene/Scene-007/frame0_colorized_generated_matched.mp4
[Scene-007] Matched video saved.
[Scene-007] All steps complete!
